<svg width="68" height="56" viewBox="0 0 68 56" fill="none" xmlns="http://www.w3.org/2000/svg">
<ellipse cx="33.9993" cy="27.9999" rx="28.3333" ry="28" fill="#F0EDF6" fill-opacity="0.2"/>
<path d="M53.3857 39.9469C52.7419 40.071 40.2675 42.3038 33.9999 34.1912C29.0171 40.5865 20.1847 40.7872 14.7113 39.9717C-1.21278 35.5929 0.0140148 18.946 0.0261612 18.7848C0.0444201 18.5382 0.135452 18.303 0.287247 18.1104C0.439041 17.9177 0.644465 17.7766 0.876415 17.7056C1.10726 17.6338 1.3537 17.6332 1.58488 17.7038C1.81606 17.7744 2.02171 17.9131 2.17609 18.1025C2.21253 18.1521 6.17228 23.0519 11.286 23.238C14.1296 23.3616 16.904 21.9008 19.3998 19.1572C22.4226 16.703 29.4656 14.8347 33.9999 20.6951C35.5441 18.686 37.7573 17.3263 40.2189 16.8745C43.1938 16.5374 46.1844 17.3518 48.5999 19.1569C51.0962 21.9004 53.8703 23.3619 56.7138 23.238C61.8275 23.052 65.7872 18.1522 65.8237 18.1025C65.9789 17.9157 66.1845 17.7796 66.4149 17.7112C66.6453 17.6428 66.8903 17.6451 67.1195 17.7178C67.3486 17.7905 67.5517 17.9305 67.7036 18.1202C67.8555 18.3099 67.9494 18.541 67.9736 18.7848C67.9857 18.946 69.2125 35.5929 53.3857 39.9469Z" fill="#F0EDF6"/>
</svg>
