<svg width="208" height="56" viewBox="0 0 208 56" fill="none" xmlns="http://www.w3.org/2000/svg">
<ellipse cx="33.9993" cy="27.9999" rx="28.3333" ry="28" fill="#F0EDF6" fill-opacity="0.2"/>
<path d="M53.3857 39.9469C52.7419 40.071 40.2675 42.3038 33.9999 34.1912C29.0171 40.5865 20.1847 40.7872 14.7113 39.9717C-1.21278 35.5929 0.0140148 18.946 0.0261612 18.7848C0.0444201 18.5382 0.135452 18.303 0.287247 18.1104C0.439041 17.9177 0.644465 17.7766 0.876415 17.7056C1.10726 17.6338 1.3537 17.6332 1.58488 17.7038C1.81606 17.7744 2.02171 17.9131 2.17609 18.1025C2.21253 18.1521 6.17228 23.0519 11.286 23.238C14.1296 23.3616 16.904 21.9008 19.3998 19.1572C22.4226 16.703 29.4656 14.8347 33.9999 20.6951C35.5441 18.686 37.7573 17.3263 40.2189 16.8745C43.1938 16.5374 46.1844 17.3518 48.5999 19.1569C51.0962 21.9004 53.8703 23.3619 56.7138 23.238C61.8275 23.052 65.7872 18.1522 65.8237 18.1025C65.9789 17.9157 66.1845 17.7796 66.4149 17.7112C66.6453 17.6428 66.8903 17.6451 67.1195 17.7178C67.3486 17.7905 67.5517 17.9305 67.7036 18.1202C67.8555 18.3099 67.9494 18.541 67.9736 18.7848C67.9857 18.946 69.2125 35.5929 53.3857 39.9469Z" fill="#F0EDF6"/>
<path d="M85.992 36.5V19.7H89.208L96.36 31.556H94.656L101.688 19.7H104.88L104.928 36.5H101.28L101.256 25.292H101.928L96.312 34.724H94.56L88.824 25.292H89.64V36.5H85.992ZM116.378 36.788C113.994 36.788 112.13 36.124 110.786 34.796C109.442 33.468 108.77 31.572 108.77 29.108V19.7H112.658V28.964C112.658 30.564 112.986 31.716 113.642 32.42C114.298 33.124 115.218 33.476 116.402 33.476C117.586 33.476 118.506 33.124 119.162 32.42C119.818 31.716 120.146 30.564 120.146 28.964V19.7H123.986V29.108C123.986 31.572 123.314 33.468 121.97 34.796C120.626 36.124 118.762 36.788 116.378 36.788ZM133.348 36.788C132.004 36.788 130.716 36.612 129.484 36.26C128.252 35.892 127.26 35.42 126.508 34.844L127.828 31.916C128.548 32.428 129.396 32.852 130.372 33.188C131.364 33.508 132.364 33.668 133.372 33.668C134.14 33.668 134.756 33.596 135.22 33.452C135.7 33.292 136.052 33.076 136.276 32.804C136.5 32.532 136.612 32.22 136.612 31.868C136.612 31.42 136.436 31.068 136.084 30.812C135.732 30.54 135.268 30.324 134.692 30.164C134.116 29.988 133.476 29.828 132.772 29.684C132.084 29.524 131.388 29.332 130.684 29.108C129.996 28.884 129.364 28.596 128.788 28.244C128.212 27.892 127.74 27.428 127.372 26.852C127.02 26.276 126.844 25.54 126.844 24.644C126.844 23.684 127.1 22.812 127.612 22.028C128.14 21.228 128.924 20.596 129.964 20.132C131.02 19.652 132.34 19.412 133.924 19.412C134.98 19.412 136.02 19.54 137.044 19.796C138.068 20.036 138.972 20.404 139.756 20.9L138.556 23.852C137.772 23.404 136.988 23.076 136.204 22.868C135.42 22.644 134.652 22.532 133.9 22.532C133.148 22.532 132.532 22.62 132.052 22.796C131.572 22.972 131.228 23.204 131.02 23.492C130.812 23.764 130.708 24.084 130.708 24.452C130.708 24.884 130.884 25.236 131.236 25.508C131.588 25.764 132.052 25.972 132.628 26.132C133.204 26.292 133.836 26.452 134.524 26.612C135.228 26.772 135.924 26.956 136.612 27.164C137.316 27.372 137.956 27.652 138.532 28.004C139.108 28.356 139.572 28.82 139.924 29.396C140.292 29.972 140.476 30.7 140.476 31.58C140.476 32.524 140.212 33.388 139.684 34.172C139.156 34.956 138.364 35.588 137.308 36.068C136.268 36.548 134.948 36.788 133.348 36.788ZM146.378 36.5V22.868H141.002V19.7H155.642V22.868H150.266V36.5H146.378ZM154.682 36.5L162.17 19.7H166.01L173.522 36.5H169.442L163.298 21.668H164.834L158.666 36.5H154.682ZM158.426 32.9L159.458 29.948H168.098L169.154 32.9H158.426ZM183.143 36.788C181.815 36.788 180.591 36.58 179.471 36.164C178.367 35.732 177.399 35.124 176.567 34.34C175.751 33.556 175.111 32.636 174.647 31.58C174.199 30.524 173.975 29.364 173.975 28.1C173.975 26.836 174.199 25.676 174.647 24.62C175.111 23.564 175.759 22.644 176.591 21.86C177.423 21.076 178.399 20.476 179.519 20.06C180.639 19.628 181.871 19.412 183.215 19.412C184.703 19.412 186.039 19.66 187.223 20.156C188.423 20.652 189.431 21.372 190.247 22.316L187.751 24.62C187.143 23.98 186.479 23.508 185.759 23.204C185.039 22.884 184.255 22.724 183.407 22.724C182.591 22.724 181.847 22.852 181.175 23.108C180.503 23.364 179.919 23.732 179.423 24.212C178.943 24.692 178.567 25.26 178.295 25.916C178.039 26.572 177.911 27.3 177.911 28.1C177.911 28.884 178.039 29.604 178.295 30.26C178.567 30.916 178.943 31.492 179.423 31.988C179.919 32.468 180.495 32.836 181.151 33.092C181.823 33.348 182.559 33.476 183.359 33.476C184.127 33.476 184.871 33.356 185.591 33.116C186.327 32.86 187.039 32.436 187.727 31.844L189.935 34.652C189.023 35.34 187.959 35.868 186.743 36.236C185.543 36.604 184.343 36.788 183.143 36.788ZM186.383 34.148V27.836H189.935V34.652L186.383 34.148ZM197.123 26.468H205.211V29.492H197.123V26.468ZM197.411 33.38H206.555V36.5H193.547V19.7H206.243V22.82H197.411V33.38Z" fill="#F7F7F7"/>
</svg>
