<svg width="68" height="56" viewBox="0 0 68 56" fill="none" xmlns="http://www.w3.org/2000/svg">
<ellipse cx="33.9993" cy="28" rx="28.3333" ry="28" fill="#F0EDF6" fill-opacity="0.2"/>
<path d="M53.3857 39.9477C52.7419 40.0718 40.2675 42.3046 33.9999 34.192C29.0171 40.5873 20.1847 40.788 14.7113 39.9725C-1.21278 35.5937 0.0140148 18.9468 0.0261612 18.7856C0.0444201 18.539 0.135452 18.3039 0.287247 18.1112C0.439041 17.9185 0.644465 17.7774 0.876415 17.7064C1.10726 17.6347 1.3537 17.6341 1.58488 17.7047C1.81606 17.7753 2.02171 17.9139 2.17609 18.1033C2.21253 18.153 6.17228 23.0527 11.286 23.2388C14.1296 23.3624 16.904 21.9016 19.3998 19.158C22.4226 16.7038 29.4656 14.8356 33.9999 20.6959C35.5441 18.6868 37.7573 17.3271 40.2189 16.8753C43.1938 16.5382 46.1844 17.3526 48.5999 19.1578C51.0962 21.9012 53.8703 23.3627 56.7138 23.2389C61.8275 23.0528 65.7872 18.153 65.8237 18.1034C65.9789 17.9165 66.1845 17.7805 66.4149 17.7121C66.6453 17.6436 66.8903 17.6459 67.1195 17.7187C67.3486 17.7914 67.5517 17.9313 67.7036 18.121C67.8555 18.3107 67.9494 18.5418 67.9736 18.7856C67.9857 18.9468 69.2125 35.5937 53.3857 39.9477Z" fill="#F0EDF6"/>
</svg>
