<svg width="32" height="164" viewBox="0 0 32 164" fill="none" xmlns="http://www.w3.org/2000/svg">
<path d="M0.938171 162.498C0.386944 162.464 -0.0322342 161.989 0.00191307 161.438L0.558369 152.455C0.592516 151.904 1.06706 151.485 1.61828 151.519C2.16951 151.553 2.58869 152.028 2.55454 152.579L2.05992 160.564L10.0446 161.058C10.5958 161.093 11.015 161.567 10.9809 162.118C10.9467 162.67 10.4722 163.089 9.92095 163.055L0.938171 162.498ZM1 1.5C1.66203 0.750527 1.66212 0.750604 1.66221 0.750686C1.66225 0.75072 1.66235 0.750807 1.66243 0.750875C1.66258 0.751011 1.66276 0.751167 1.66296 0.751344C1.66336 0.751696 1.66385 0.752129 1.66442 0.752642C1.66558 0.753668 1.6671 0.755015 1.66898 0.756684C1.67273 0.76002 1.67791 0.764642 1.6845 0.770547C1.69768 0.782359 1.71651 0.799309 1.74082 0.821399C1.78943 0.865579 1.85996 0.930323 1.95113 1.01564C2.13347 1.18627 2.39835 1.43922 2.73543 1.77458C3.40957 2.44526 4.37268 3.44574 5.54196 4.77675L4.03941 6.09673C2.90149 4.80141 1.96926 3.83352 1.32485 3.19242C1.00267 2.87188 0.752476 2.63308 0.584557 2.47594C0.500597 2.39737 0.437212 2.33922 0.395683 2.30147C0.37492 2.2826 0.359621 2.26883 0.349947 2.26017C0.34511 2.25583 0.341681 2.25278 0.339676 2.25099C0.338675 2.2501 0.33803 2.24953 0.337744 2.24928C0.337601 2.24915 0.337547 2.2491 0.337584 2.24914C0.337603 2.24915 0.337643 2.24919 0.337708 2.24924C0.337738 2.24927 0.337803 2.24933 0.33782 2.24934C0.337889 2.24941 0.337965 2.24947 1 1.5ZM12.2898 13.5465C14.1373 16.2664 16.0841 19.4215 18.0058 23.0129L16.2424 23.9565C14.3559 20.4308 12.4459 17.3357 10.6354 14.6702L12.2898 13.5465ZM22.7273 33.0011C24.0614 36.2229 25.3235 39.687 26.4621 43.3938L24.5503 43.9811C23.4308 40.3365 22.1902 36.9317 20.8794 33.7663L22.7273 33.0011ZM29.2209 54.0965C29.9474 57.5525 30.5557 61.1769 31.0161 64.9698L29.0307 65.2109C28.5773 61.4759 27.9785 57.9083 27.2637 54.5079L29.2209 54.0965ZM31.8929 75.9778C31.9635 77.7859 32 79.6266 32 81.5H30C30 79.6526 29.964 77.8379 29.8945 76.0557L31.8929 75.9778ZM32 81.5C32 83.3734 31.9635 85.2141 31.8929 87.0222L29.8945 86.9443C29.964 85.1621 30 83.3474 30 81.5H32ZM31.0161 98.0302C30.5557 101.823 29.9474 105.448 29.2209 108.904L27.2637 108.492C27.9785 105.092 28.5773 101.524 29.0307 97.7891L31.0161 98.0302ZM26.4621 119.606C25.3235 123.313 24.0614 126.777 22.7273 129.999L20.8794 129.234C22.1902 126.068 23.4308 122.663 24.5503 119.019L26.4621 119.606ZM18.0058 139.987C16.0841 143.579 14.1373 146.734 12.2898 149.454L10.6354 148.33C12.4459 145.664 14.3559 142.569 16.2424 139.044L18.0058 139.987ZM5.54196 158.223C4.37268 159.554 3.40957 160.555 2.73543 161.225C2.39835 161.561 2.13347 161.814 1.95113 161.984C1.85996 162.07 1.78943 162.134 1.74082 162.179C1.71651 162.201 1.69768 162.218 1.6845 162.229C1.67791 162.235 1.67273 162.24 1.66898 162.243C1.6671 162.245 1.66558 162.246 1.66442 162.247C1.66385 162.248 1.66336 162.248 1.66296 162.249C1.66276 162.249 1.66258 162.249 1.66243 162.249C1.66235 162.249 1.66225 162.249 1.66221 162.249C1.66212 162.249 1.66203 162.249 1 161.5C0.337965 160.751 0.337889 160.751 0.33782 160.751C0.337803 160.751 0.337738 160.751 0.337708 160.751C0.337643 160.751 0.337603 160.751 0.337584 160.751C0.337547 160.751 0.337601 160.751 0.337744 160.751C0.33803 160.75 0.338675 160.75 0.339676 160.749C0.341681 160.747 0.34511 160.744 0.349947 160.74C0.359621 160.731 0.37492 160.717 0.395683 160.699C0.437212 160.661 0.500597 160.603 0.584557 160.524C0.752476 160.367 1.00267 160.128 1.32486 159.808C1.96926 159.166 2.90149 158.199 4.03941 156.903L5.54196 158.223Z" fill="#F7F7F7"/>
</svg>
