<svg width="32" height="164" viewBox="0 0 32 164" fill="none" xmlns="http://www.w3.org/2000/svg">
<path d="M31.0618 162.498C31.6131 162.464 32.0322 161.989 31.9981 161.438L31.4416 152.455C31.4075 151.904 30.9329 151.485 30.3817 151.519C29.8305 151.553 29.4113 152.028 29.4455 152.579L29.9401 160.564L21.9554 161.058C21.4042 161.093 20.985 161.567 21.0191 162.118C21.0533 162.67 21.5278 163.089 22.079 163.055L31.0618 162.498ZM31 1.5C30.338 0.750527 30.3379 0.750604 30.3378 0.750686C30.3377 0.75072 30.3376 0.750807 30.3376 0.750875C30.3374 0.751011 30.3372 0.751167 30.337 0.751344C30.3366 0.751696 30.3362 0.752129 30.3356 0.752642C30.3344 0.753668 30.3329 0.755015 30.331 0.756684C30.3273 0.76002 30.3221 0.764642 30.3155 0.770547C30.3023 0.782359 30.2835 0.799309 30.2592 0.821399C30.2106 0.865579 30.14 0.930323 30.0489 1.01564C29.8665 1.18627 29.6017 1.43922 29.2646 1.77458C28.5904 2.44526 27.6273 3.44574 26.458 4.77675L27.9606 6.09673C29.0985 4.80141 30.0307 3.83352 30.6751 3.19242C30.9973 2.87188 31.2475 2.63308 31.4154 2.47594C31.4994 2.39737 31.5628 2.33922 31.6043 2.30147C31.6251 2.2826 31.6404 2.26883 31.6501 2.26017C31.6549 2.25583 31.6583 2.25278 31.6603 2.25099C31.6613 2.2501 31.662 2.24953 31.6623 2.24928C31.6624 2.24915 31.6625 2.2491 31.6624 2.24914C31.6624 2.24915 31.6624 2.24919 31.6623 2.24924C31.6623 2.24927 31.6622 2.24933 31.6622 2.24934C31.6621 2.24941 31.662 2.24947 31 1.5ZM19.7102 13.5465C17.8627 16.2664 15.9159 19.4215 13.9942 23.0129L15.7576 23.9565C17.6441 20.4308 19.5541 17.3357 21.3646 14.6702L19.7102 13.5465ZM9.27273 33.0011C7.93861 36.2229 6.67652 39.687 5.53788 43.3938L7.44972 43.9811C8.56923 40.3365 9.80976 36.9317 11.1206 33.7663L9.27273 33.0011ZM2.77908 54.0965C2.05262 57.5525 1.44433 61.1769 0.983868 64.9698L2.96929 65.2109C3.42272 61.4759 4.02154 57.9083 4.73631 54.5079L2.77908 54.0965ZM0.107065 75.9778C0.0365297 77.7859 0 79.6266 0 81.5H2C2 79.6526 2.03602 77.8379 2.10555 76.0557L0.107065 75.9778ZM0 81.5C0 83.3734 0.0365296 85.2141 0.107065 87.0222L2.10555 86.9443C2.03602 85.1621 2 83.3474 2 81.5H0ZM0.983867 98.0302C1.44433 101.823 2.05262 105.448 2.77908 108.904L4.73631 108.492C4.02154 105.092 3.42272 101.524 2.96929 97.7891L0.983867 98.0302ZM5.53788 119.606C6.67652 123.313 7.93861 126.777 9.27273 129.999L11.1206 129.234C9.80976 126.068 8.56923 122.663 7.44972 119.019L5.53788 119.606ZM13.9942 139.987C15.9159 143.579 17.8627 146.734 19.7102 149.454L21.3646 148.33C19.5541 145.664 17.6441 142.569 15.7576 139.044L13.9942 139.987ZM26.458 158.223C27.6273 159.554 28.5904 160.555 29.2646 161.225C29.6017 161.561 29.8665 161.814 30.0489 161.984C30.14 162.07 30.2106 162.134 30.2592 162.179C30.2835 162.201 30.3023 162.218 30.3155 162.229C30.3221 162.235 30.3273 162.24 30.331 162.243C30.3329 162.245 30.3344 162.246 30.3356 162.247C30.3362 162.248 30.3366 162.248 30.337 162.249C30.3372 162.249 30.3374 162.249 30.3376 162.249C30.3376 162.249 30.3377 162.249 30.3378 162.249C30.3379 162.249 30.338 162.249 31 161.5C31.662 160.751 31.6621 160.751 31.6622 160.751C31.6622 160.751 31.6623 160.751 31.6623 160.751C31.6624 160.751 31.6624 160.751 31.6624 160.751C31.6625 160.751 31.6624 160.751 31.6623 160.751C31.662 160.75 31.6613 160.75 31.6603 160.749C31.6583 160.747 31.6549 160.744 31.6501 160.74C31.6404 160.731 31.6251 160.717 31.6043 160.699C31.5628 160.661 31.4994 160.603 31.4154 160.524C31.2475 160.367 30.9973 160.128 30.6751 159.808C30.0307 159.166 29.0985 158.199 27.9606 156.903L26.458 158.223Z" fill="#F7F7F7"/>
</svg>
