<svg width="40" height="40" viewBox="0 0 40 40" fill="none" xmlns="http://www.w3.org/2000/svg">
<g clip-path="url(#clip0_969_2344)">
<mask id="mask0_969_2344" style="mask-type:luminance" maskUnits="userSpaceOnUse" x="0" y="0" width="40" height="40">
<path d="M40 0H0V40H40V0Z" fill="white"/>
</mask>
<g mask="url(#mask0_969_2344)">
<mask id="mask1_969_2344" style="mask-type:luminance" maskUnits="userSpaceOnUse" x="0" y="0" width="40" height="40">
<path d="M40 0H0V40H40V0Z" fill="white"/>
</mask>
<g mask="url(#mask1_969_2344)">
<path d="M20 40C31.0457 40 40 31.0457 40 20C40 8.9543 31.0457 0 20 0C8.9543 0 0 8.9543 0 20C0 31.0457 8.9543 40 20 40Z" fill="white"/>
<path d="M16.2229 17.1554C16.2229 17.1554 28.934 9.16641 39.3733 17.7374C39.3715 17.736 39.3699 17.7345 39.3683 17.7332C39.3739 17.738 39.3796 17.7426 39.3854 17.7474C39.3814 17.7441 39.3773 17.7407 39.3733 17.7374C39.5578 17.8905 39.7424 18.0476 39.9274 18.2094C39.6613 15.0994 38.6579 12.007 36.8585 9.19861C30.9184 -0.0734301 18.5539 -2.75327 9.2432 3.21188C9.00195 3.36704 8.76555 3.52704 8.5332 3.69032C8.53399 3.69829 8.53727 3.75626 8.54524 3.85829C8.63445 4.97751 9.5768 14.6001 16.2229 17.1554Z" fill="#2EBADC"/>
<path d="M39.9275 18.2095C39.9132 18.2045 39.8983 18.1992 39.8838 18.1941C37.7763 17.4275 29.9096 14.4285 24.2359 17.7857C24.2359 17.7857 25.076 33.4907 11.3442 38.0312C11.3457 38.0305 19.9431 33.7497 19.9431 24.9311C19.9431 24.9311 6.60903 18.5438 8.53309 3.69092C-0.201758 9.81857 -2.6452 21.7705 3.14136 30.8022C5.22309 34.0512 8.0934 36.4891 11.3442 38.0312C17.372 40.8895 24.7081 40.6645 30.7569 36.7891C37.2476 32.6306 40.5403 25.3686 39.9275 18.2095ZM11.3442 38.0312C11.4003 37.9995 11.4012 37.9995 11.3442 38.0312V38.0312Z" fill="#2EBADC"/>
</g>
</g>
</g>
<defs>
<clipPath id="clip0_969_2344">
<rect width="40" height="40" fill="white"/>
</clipPath>
</defs>
</svg>
