<svg width="65" height="64" viewBox="0 0 65 64" fill="none" xmlns="http://www.w3.org/2000/svg">
<path d="M21.4707 32.0008C21.4707 25.8758 26.4352 20.9102 32.5602 20.9102C38.6854 20.9102 43.6488 25.8758 43.6488 32.0008C43.6488 38.1248 38.6854 43.0904 32.5602 43.0904C26.4352 43.0904 21.4707 38.1248 21.4707 32.0008Z" fill="#8AFF34"/>
<path d="M40.2508 17.9536C40.2508 14.444 43.0965 11.5983 46.6062 11.5983C50.1169 11.5983 52.9637 14.444 52.9637 17.9536C52.9637 21.4644 50.1169 24.3101 46.6062 24.3101C43.0965 24.3101 40.2508 21.4644 40.2508 17.9536ZM7.5 32.0012C7.5 18.203 18.6771 7.01685 32.4698 7V16.0348C23.6653 16.0505 16.5337 23.1923 16.5337 32.0012C16.5337 40.8192 23.6822 47.9666 32.499 47.9666C41.2641 47.9666 48.4655 40.8866 48.4655 31.9406L57.4991 31.946C57.4991 45.8082 46.3073 57 32.499 57C18.6918 57 7.5 45.8082 7.5 32.001" fill="#00966E"/>
</svg>
