<svg width="65" height="64" viewBox="0 0 65 64" fill="none" xmlns="http://www.w3.org/2000/svg">
<g clip-path="url(#clip0_626_4325)">
<path d="M16.6553 23.2937C17.1342 21.1593 17.3695 13.5039 6.78149 13.2603C6.30251 15.3947 6.06722 23.0416 16.6553 23.2937Z" fill="#00D352"/>
<path d="M16.7924 50.7809C14.4143 50.7809 12.5404 51.7893 10.7925 51.2179C7.34721 50.0919 3.49014 43.697 2.87671 37.3274C2.3221 31.5796 4.59937 27.9074 7.43124 26.3444C11.1118 24.3193 14.0446 25.7814 16.7924 25.7814C19.5403 25.7814 22.5654 24.3193 26.246 26.3444C29.0779 27.9074 31.3552 31.5796 30.8006 37.3274C30.1871 43.6886 26.33 50.0919 22.8847 51.2179C21.1369 51.7893 19.1705 50.7809 16.7924 50.7809Z" fill="#00D352"/>
<path d="M44.7963 40.773L48.9811 30.353L53.1239 40.773H44.7963ZM35.8301 51.0249H40.5275L43.1913 44.6133H54.7373L57.4263 51.0249H62.2077L51.3424 25.6641H46.6954L35.8301 51.0249Z" fill="#F7F7F7"/>
</g>
<defs>
<clipPath id="clip0_626_4325">
<rect width="59.4197" height="38.9936" fill="white" transform="translate(2.79102 13.2593)"/>
</clipPath>
</defs>
</svg>
