<svg width="65" height="64" viewBox="0 0 65 64" fill="none" xmlns="http://www.w3.org/2000/svg">
<g clip-path="url(#clip0_626_4323)">
<path d="M50.9237 4.20996H14.0358C8.90416 4.20996 4.74414 8.36998 4.74414 13.5016V50.4221C4.74414 55.5537 8.90416 59.7137 14.0358 59.7137H50.9237C56.0554 59.7137 60.2154 55.5537 60.2154 50.4221V13.5016C60.2154 8.36998 56.0554 4.20996 50.9237 4.20996Z" fill="url(#paint0_linear_626_4323)"/>
<path d="M23.2554 36.3304V30.072C23.2554 28.2969 22.3049 27.4541 20.7095 27.4541C19.3822 27.4541 18.2347 28.243 17.7325 29.0318C17.4096 28.0455 16.6026 27.4541 15.3296 27.4541C14.0023 27.4541 12.8548 28.2787 12.4961 28.7991V27.6692H10.2188V36.33H12.4961V30.5027C12.8367 30.0186 13.5006 29.4806 14.2894 29.4806C15.2218 29.4806 15.5805 30.0544 15.5805 30.8614V36.33H17.8755V30.4846C18.1984 30.0181 18.8619 29.4801 19.6688 29.4801C20.6013 29.4801 20.9604 30.0539 20.9604 30.8609V36.33L23.2554 36.3304ZM29.5138 36.5455C26.6627 36.5455 24.9414 34.4656 24.9414 31.9908C24.9414 29.534 26.6627 27.4541 29.5138 27.4541C32.3831 27.4541 34.1044 29.534 34.1044 31.9908C34.1044 34.4656 32.3831 36.5455 29.5138 36.5455ZM29.5138 34.5195C30.9308 34.5195 31.7373 33.3534 31.7373 31.9908C31.7373 30.6458 30.9303 29.4806 29.5138 29.4806C28.0968 29.4806 27.308 30.6458 27.308 31.9908C27.308 33.3538 28.0973 34.5195 29.5138 34.5195ZM43.9131 36.3304V30.2156C43.9131 28.5301 42.9988 27.4541 41.0977 27.4541C39.6808 27.4541 38.6234 28.1356 38.0673 28.7991V27.6692H35.7899V36.3304H38.0673V30.5027C38.4436 29.9824 39.1432 29.4806 40.0399 29.4806C41.0081 29.4806 41.6357 29.8932 41.6357 31.0946V36.3304H43.9131ZM50.1892 36.5455C47.338 36.5455 45.6167 34.4656 45.6167 31.9908C45.6167 29.534 47.338 27.4541 50.1892 27.4541C53.0584 27.4541 54.7797 29.534 54.7797 31.9908C54.7797 34.4656 53.0584 36.5455 50.1892 36.5455ZM50.1892 34.5195C51.6062 34.5195 52.4127 33.3534 52.4127 31.9908C52.4127 30.6458 51.6057 29.4806 50.1892 29.4806C48.7722 29.4806 47.9833 30.6458 47.9833 31.9908C47.9833 33.3538 48.7727 34.5195 50.1892 34.5195Z" fill="white"/>
</g>
<defs>
<linearGradient id="paint0_linear_626_4323" x1="33.1232" y1="4.8692" x2="33.1232" y2="58.9411" gradientUnits="userSpaceOnUse">
<stop stop-color="#373B45"/>
<stop offset="1" stop-color="#181A1D"/>
</linearGradient>
<clipPath id="clip0_626_4323">
<rect width="55.75" height="55.75" fill="white" transform="translate(4.625 4.125)"/>
</clipPath>
</defs>
</svg>
