<svg width="80" height="36" viewBox="0 0 80 36" fill="none" xmlns="http://www.w3.org/2000/svg">
<path d="M16.6431 23.7172L12.6683 18.497V23.7172H9.78906V11.8955H12.6683V17.0831L16.6106 11.8955H19.9954L15.4143 17.6895L20.1641 23.7172H16.6431Z" fill="#62C862"/>
<path d="M28.89 19.7096H22.3703C22.4138 20.2942 22.604 20.7401 22.933 21.0473C23.2647 21.3573 23.6698 21.5096 24.1538 21.5096C24.8716 21.5096 25.3719 21.2051 25.6519 20.5987H28.7159C28.5583 21.216 28.2756 21.7733 27.865 22.2654C27.4544 22.7603 26.9405 23.1464 26.3234 23.4264C25.7063 23.7064 25.0157 23.8478 24.2517 23.8478C23.33 23.8478 22.5116 23.652 21.7911 23.2577C21.0733 22.8662 20.5106 22.3035 20.1082 21.5749C19.7031 20.8462 19.502 19.9925 19.502 19.0136C19.502 18.0376 19.7004 17.1838 20.1 16.4552C20.497 15.7265 21.057 15.1637 21.7748 14.7694C22.4925 14.3779 23.3191 14.1794 24.2517 14.1794C25.1597 14.1794 25.97 14.3698 26.6768 14.7531C27.3837 15.1338 27.9357 15.6803 28.3352 16.3872C28.7349 17.0941 28.9335 17.9206 28.9335 18.8641C28.9389 19.136 28.9226 19.4187 28.89 19.7096ZM25.9917 18.111C25.9917 17.6161 25.8231 17.2246 25.486 16.931C25.1488 16.64 24.7274 16.4933 24.2218 16.4933C23.7405 16.4933 23.3327 16.6345 23.001 16.9147C22.6693 17.1947 22.4655 17.5944 22.3866 18.111H25.9917Z" fill="#62C862"/>
<path d="M33.18 14.3208V23.7173H30.3008V14.3208H33.18Z" fill="#62C862"/>
<path d="M45.9473 14.1848C45.1726 14.1848 44.471 14.3806 43.843 14.7748C43.215 15.1691 42.7174 15.7291 42.353 16.4606C41.9887 17.1892 41.8066 18.0375 41.8066 19.0027C41.8066 19.9679 41.9887 20.8188 42.353 21.5529C42.7174 22.2872 43.215 22.8553 43.843 23.255C44.471 23.6547 45.1671 23.8532 45.931 23.8532C46.5945 23.8532 47.1735 23.7172 47.6738 23.4481C48.174 23.1788 48.5628 22.8254 48.8428 22.3876V23.7172H51.7222V14.3208H48.8428V15.6503C48.5737 15.2126 48.1876 14.8591 47.6902 14.5899C47.1898 14.3208 46.6108 14.1848 45.9473 14.1848ZM48.5846 19.019C48.5846 19.7367 48.3862 20.3051 47.9865 20.7211C47.5895 21.1371 47.1028 21.3436 46.5292 21.3436C45.9554 21.3436 45.4716 21.1344 45.0719 20.7129C44.6722 20.2915 44.4737 19.7232 44.4737 19.0027C44.4737 18.2849 44.6722 17.7193 45.0719 17.3088C45.4689 16.8982 45.9554 16.6943 46.5292 16.6943C47.1001 16.6943 47.5868 16.9009 47.9865 17.3169C48.3862 17.7329 48.5846 18.3012 48.5846 19.019Z" fill="#62C862"/>
<path d="M40.8907 22.279C40.7331 21.9609 40.6026 21.6236 40.4965 21.2756H39.7488C39.4335 21.2756 39.2106 21.2158 39.0746 21.0908C38.9387 20.9684 38.8734 20.7646 38.8734 20.4844V16.7134H40.5019H40.7467H40.7603V16.6699V16.0201V14.3235H38.8734V12.0315H35.9943V14.3235H34.8496V16.7134H35.9943V20.4518C35.9943 21.6073 36.2851 22.442 36.8696 22.9532C37.4542 23.4644 38.2671 23.72 39.311 23.72H41.8749C41.4917 23.3012 41.1626 22.8227 40.8907 22.279Z" fill="#62C862"/>
<path d="M32.9397 10.3946C32.6107 10.0873 32.211 9.93237 31.7406 9.93237C31.2675 9.93237 30.868 10.0846 30.5389 10.3891C30.2099 10.6937 30.0469 11.1124 30.0469 11.648C30.0469 12.1809 30.2099 12.605 30.5389 12.9177C30.868 13.2304 31.2677 13.3881 31.7379 13.3881C32.2083 13.3881 32.6107 13.2331 32.937 12.9259C33.2659 12.6186 33.4291 12.1972 33.4291 11.6616C33.4318 11.126 33.2686 10.7045 32.9397 10.3946Z" fill="#62C862"/>
<path d="M67.8234 14.7748C67.0839 14.3833 66.2519 14.1848 65.3301 14.1848C64.4085 14.1848 63.5793 14.3806 62.837 14.7748C62.0975 15.1691 61.513 15.7319 61.0861 16.4687C60.6593 17.2028 60.4473 18.0538 60.4473 19.019C60.4473 19.9951 60.6565 20.8487 61.078 21.5802C61.4994 22.3089 62.0757 22.8716 62.8125 23.2631C63.5466 23.6574 64.3759 23.8532 65.2975 23.8532C66.2165 23.8532 67.0513 23.6574 67.7989 23.2631C68.5439 22.8716 69.1338 22.3062 69.5661 21.5721C69.9985 20.838 70.2132 19.987 70.2132 19.019C70.2132 18.0538 70.0012 17.2028 69.5743 16.4687C69.1474 15.7319 68.5657 15.1691 67.8234 14.7748ZM66.7033 20.7537C66.3172 21.1561 65.8468 21.3599 65.2975 21.3599C64.7484 21.3599 64.2889 21.1588 63.9245 20.7537C63.5602 20.3486 63.3781 19.7721 63.3781 19.019C63.3781 18.255 63.5629 17.6732 63.9327 17.2762C64.3025 16.8766 64.7701 16.678 65.3301 16.678C65.8794 16.678 66.3444 16.8793 66.7196 17.2844C67.0948 17.6895 67.2823 18.2658 67.2823 19.019C67.285 19.7721 67.0921 20.3513 66.7033 20.7537Z" fill="#62C862"/>
<path d="M60.6128 14.4241C60.3273 14.2882 59.9875 14.2202 59.5361 14.2202C59.1011 14.2202 58.3563 14.3698 57.8506 14.6661C57.3448 14.9652 56.9234 15.3703 56.5862 15.8869V14.3208H53.707V23.7173H56.5862V19.3561C56.5862 18.5813 56.7657 18.0403 57.1246 17.7302C57.4835 17.423 58.0218 17.2681 58.7422 17.2681H59.0251C59.1691 16.6917 59.3867 16.1506 59.6776 15.6503C59.9413 15.1936 60.2539 14.7857 60.6128 14.4241Z" fill="#62C862"/>
</svg>
