<svg width="56" height="57" viewBox="0 0 56 57" fill="none" xmlns="http://www.w3.org/2000/svg">
<g clip-path="url(#clip0_225_2204)">
<path d="M4.62413 47.0051C7.1758 47.0051 9.24434 44.9365 9.24434 42.3849C9.24434 39.8332 7.1758 37.7646 4.62413 37.7646C2.07245 37.7646 0.00390625 39.8332 0.00390625 42.3849C0.00390625 44.9365 2.07245 47.0051 4.62413 47.0051Z" fill="#F7F7F7"/>
<path d="M45.4791 46.0672C40.8103 50.7359 34.6029 53.3071 28.0003 53.3071C21.7295 53.3071 15.7623 50.9416 11.2171 46.7345C10.6072 47.6558 9.80936 48.4415 8.87891 49.0384C14.0405 53.869 20.8454 56.5884 28.0003 56.5884C35.4793 56.5884 42.5107 53.6759 47.7993 48.3874C53.0877 43.0988 56.0003 36.0674 56.0003 28.5884H52.719C52.719 35.191 50.1478 41.3985 45.4791 46.0672Z" fill="#F7F7F7"/>
<path d="M51.3526 18.7199C53.9043 18.7199 55.9729 16.6514 55.9729 14.0997C55.9729 11.548 53.9043 9.47949 51.3526 9.47949C48.801 9.47949 46.7324 11.548 46.7324 14.0997C46.7324 16.6514 48.801 18.7199 51.3526 18.7199Z" fill="#F7F7F7"/>
<path d="M46.6816 7.73275C41.5743 3.15727 34.939 0.588379 28 0.588379C20.5209 0.588379 13.4895 3.50082 8.20094 8.78932C2.91233 14.0778 0 21.1093 0 28.5884H3.28125C3.28125 21.9857 5.85244 15.7783 10.5212 11.1096C15.19 6.44082 21.3974 3.86963 28 3.86963C34.1275 3.86963 39.9871 6.13905 44.4967 10.1809C45.0478 9.22058 45.7937 8.38605 46.6816 7.73275Z" fill="#F7F7F7"/>
<path d="M16.4727 20.0388L28.0001 26.6941L39.5276 20.0388L28.0001 13.3833L16.4727 20.0388Z" fill="#F7F7F7"/>
<path d="M41.1681 22.8804L29.6406 29.5357V42.8464L41.1681 36.1911V22.8804Z" fill="#F7F7F7"/>
<path d="M26.3595 42.8464V29.5357L14.832 22.8804V36.1911L26.3595 42.8464Z" fill="#F7F7F7"/>
</g>
<defs>
<clipPath id="clip0_225_2204">
<rect width="56" height="56" fill="white" transform="translate(0 0.588379)"/>
</clipPath>
</defs>
</svg>
