<svg width="56" height="57" viewBox="0 0 56 57" fill="none" xmlns="http://www.w3.org/2000/svg">
<path fill-rule="evenodd" clip-rule="evenodd" d="M26.25 30.3384V37.3384C26.25 38.7314 25.697 40.0666 24.7118 41.0501C23.7283 42.0354 22.393 42.5884 21 42.5884H8.75C7.357 42.5884 6.02175 42.0354 5.03825 41.0501C4.053 40.0666 3.5 38.7314 3.5 37.3384V19.8384C3.5 16.9386 5.85025 14.5884 8.75 14.5884H14V21.5884C14 22.9814 14.553 24.3166 15.5382 25.3001C16.5217 26.2854 17.857 26.8384 19.25 26.8384H29.75V14.5884C29.75 13.1954 30.303 11.8601 31.2882 10.8766C32.2717 9.89138 33.607 9.33838 35 9.33838H38.5C38.5 6.43863 40.8503 4.08838 43.75 4.08838H47.25C50.1497 4.08838 52.5 6.43863 52.5 9.33838V12.8384C52.5 15.7381 50.1497 18.0884 47.25 18.0884H43.75C40.8503 18.0884 38.5 15.7381 38.5 12.8384H35C34.5362 12.8384 34.09 13.0221 33.7627 13.3511C33.4337 13.6784 33.25 14.1246 33.25 14.5884V26.8384H38.5C38.5 23.9386 40.8503 21.5884 43.75 21.5884H47.25C50.1497 21.5884 52.5 23.9386 52.5 26.8384V30.3384C52.5 33.2381 50.1497 35.5884 47.25 35.5884H43.75C40.8503 35.5884 38.5 33.2381 38.5 30.3384H33.25V42.5884C33.25 43.0521 33.4337 43.4984 33.7627 43.8256C34.09 44.1546 34.5362 44.3384 35 44.3384H38.5C38.5 41.4386 40.8503 39.0884 43.75 39.0884H47.25C50.1497 39.0884 52.5 41.4386 52.5 44.3384V47.8384C52.5 50.7381 50.1497 53.0884 47.25 53.0884H43.75C40.8503 53.0884 38.5 50.7381 38.5 47.8384H35C33.607 47.8384 32.2717 47.2854 31.2882 46.3001C30.303 45.3166 29.75 43.9814 29.75 42.5884V30.3384H26.25ZM17.5 14.5884H17.801C19.1922 14.5884 20.5275 15.1414 21.5127 16.1266L24.7118 19.3256C25.697 20.3109 26.25 21.6461 26.25 23.0374V23.3384H19.25C18.7863 23.3384 18.34 23.1546 18.0127 22.8256C17.6837 22.4984 17.5 22.0521 17.5 21.5884V14.5884Z" fill="#F7F7F7"/>
</svg>
