<svg width="24" height="24" viewBox="0 0 24 24" fill="none" xmlns="http://www.w3.org/2000/svg">
<g clip-path="url(#clip0_225_2006)">
<path d="M13.9746 6.40617C11.0653 5.79628 8.79139 3.52233 8.18159 0.612984C8.10669 0.255844 7.79169 0 7.42667 0C7.06166 0 6.74666 0.255844 6.6718 0.613031C6.06195 3.52233 3.788 5.79623 0.878703 6.40603C0.521516 6.48089 0.265625 6.79594 0.265625 7.16091C0.265625 7.52588 0.521469 7.84092 0.878703 7.91578C3.78795 8.52567 6.06181 10.7996 6.67166 13.7089C6.74652 14.0661 7.06152 14.322 7.42653 14.322C7.7915 14.322 8.10655 14.0661 8.18141 13.7089C8.7913 10.7996 11.0653 8.52567 13.9746 7.91592C14.3318 7.84106 14.5877 7.52606 14.5877 7.16105C14.5876 6.79608 14.3318 6.48103 13.9746 6.40617Z" fill="#F7F7F7"/>
<path d="M12.701 19.1477C11.3303 18.8604 10.2589 17.7891 9.9715 16.4183C9.89664 16.0611 9.58164 15.8052 9.21662 15.8052C8.85166 15.8052 8.53661 16.061 8.46175 16.4182C8.17436 17.789 7.10294 18.8603 5.73222 19.1477C5.37503 19.2226 5.11914 19.5376 5.11914 19.9026C5.11914 20.2675 5.37498 20.5826 5.73222 20.6574C7.10289 20.9448 8.17431 22.0162 8.46166 23.387C8.53652 23.7442 8.85152 24.0001 9.21653 24.0001C9.5815 24.0001 9.89655 23.7443 9.97141 23.387C10.2588 22.0162 11.3302 20.9448 12.701 20.6575C13.0582 20.5826 13.3141 20.2676 13.3141 19.9026C13.3141 19.5376 13.0582 19.2226 12.701 19.1477Z" fill="#F7F7F7"/>
<path d="M23.1205 12.0062C21.2677 11.6178 19.8196 10.1697 19.4313 8.31694C19.3564 7.95975 19.0414 7.70386 18.6764 7.70386C18.3114 7.70386 17.9964 7.95965 17.9215 8.31689C17.5331 10.1697 16.085 11.6178 14.2322 12.0061C13.875 12.081 13.6191 12.396 13.6191 12.761C13.6191 13.126 13.875 13.441 14.2322 13.5159C16.085 13.9043 17.5331 15.3524 17.9214 17.2052C17.9963 17.5624 18.3113 17.8183 18.6763 17.8183C19.0413 17.8183 19.3563 17.5625 19.4312 17.2052C19.8196 15.3524 21.2677 13.9043 23.1205 13.516C23.4777 13.4411 23.7335 13.1261 23.7335 12.7611C23.7335 12.3961 23.4777 12.0811 23.1205 12.0062Z" fill="#F7F7F7"/>
</g>
<defs>
<clipPath id="clip0_225_2006">
<rect width="24" height="24" fill="white"/>
</clipPath>
</defs>
</svg>
