<svg width="48" height="48" viewBox="0 0 48 48" fill="none" xmlns="http://www.w3.org/2000/svg">
<path fill-rule="evenodd" clip-rule="evenodd" d="M48 24C48 36.9787 37.2548 47.5 24 47.5C10.7452 47.5 0 36.9787 0 24C0 11.0213 10.7452 0.5 24 0.5C37.2548 0.5 48 11.0213 48 24ZM33.6386 12.3569L10.9807 21.093C9.42769 21.7001 9.45511 22.5598 10.7143 22.9593L16.5149 24.7688L29.9706 16.2971C30.5953 15.8819 31.175 16.1169 30.7011 16.534L19.8127 26.3708L19.3956 32.3495C20.0027 32.3495 20.2671 32.0852 20.5804 31.7718L23.4141 29.0419L29.2891 33.3718C30.3603 33.9789 31.126 33.6656 31.4119 32.377L35.2699 14.2017L35.2679 14.2036C35.6087 12.6135 34.6902 11.977 33.6386 12.3569Z" fill="#F7F7F7"/>
</svg>
