<svg width="48" height="48" viewBox="0 0 48 48" fill="none" xmlns="http://www.w3.org/2000/svg">
<g clip-path="url(#clip0_225_2885)">
<path d="M24 0C10.7472 0 0 10.7472 0 24C0 37.2528 10.7472 48 24 48C37.2528 48 48 37.2528 48 24C48 10.7472 37.2528 0 24 0ZM36.0403 18.3631V21.6127C34.508 21.6133 33.0191 21.313 31.6149 20.7206C30.712 20.3394 29.8708 19.8483 29.1014 19.2547L29.1245 29.2572C29.1148 31.5096 28.2237 33.6258 26.6109 35.2198C25.2984 36.5173 23.6353 37.3424 21.8327 37.6095C21.4091 37.6722 20.9781 37.7044 20.5421 37.7044C18.6125 37.7044 16.7805 37.0793 15.2819 35.9259C14.9999 35.7088 14.7302 35.4734 14.4734 35.2198C12.7255 33.4923 11.8242 31.151 11.976 28.6879C12.0918 26.813 12.8424 25.0249 14.0938 23.6234C15.7494 21.7688 18.0656 20.7395 20.5421 20.7395C20.9781 20.7395 21.4091 20.7722 21.8327 20.8349V22.0364V25.3788C21.4311 25.2463 21.0022 25.1735 20.5555 25.1735C18.293 25.1735 16.4625 27.0194 16.4963 29.2837C16.5178 30.7324 17.3092 31.9987 18.4763 32.6968C19.0249 33.0249 19.6559 33.2282 20.3293 33.2651C20.8569 33.2941 21.3636 33.2206 21.8327 33.0657C23.4492 32.5317 24.6154 31.0133 24.6154 29.2225L24.6207 22.5244V10.2956H29.096C29.1003 10.7391 29.1453 11.1717 29.2289 11.591C29.5667 13.2879 30.5232 14.7602 31.8545 15.7639C33.0153 16.6394 34.4607 17.1584 36.0274 17.1584C36.0284 17.1584 36.0413 17.1584 36.0402 17.1574V18.3631H36.0403Z" fill="#F7F7F7"/>
</g>
<defs>
<clipPath id="clip0_225_2885">
<rect width="48" height="48" fill="white"/>
</clipPath>
</defs>
</svg>
