<svg width="56" height="57" viewBox="0 0 56 57" fill="none" xmlns="http://www.w3.org/2000/svg">
<g clip-path="url(#clip0_225_2184)">
<path d="M50.2297 8.68668L28.6456 0.697009C28.2538 0.552169 27.8198 0.552169 27.4301 0.697009L5.84646 8.68668C5.15815 8.93833 4.70312 9.59417 4.70312 10.3269V28.9962C4.70312 50.2372 27.36 56.4696 27.5912 56.5303C27.7356 56.5674 27.8873 56.5884 28.0368 56.5884C28.1859 56.5884 28.3376 56.5674 28.4824 56.5303C28.7136 56.4696 51.3705 50.2347 51.3705 28.9962V10.3269C51.3705 9.59417 50.9155 8.93833 50.2297 8.68668ZM28.0368 43.7549C19.6741 43.7549 12.8697 36.9509 12.8697 28.5878C12.8697 20.2251 19.6741 13.4211 28.0368 13.4211C36.3995 13.4211 43.2039 20.2251 43.2039 28.5878C43.2039 36.9509 36.3995 43.7549 28.0368 43.7549Z" fill="#F7F7F7"/>
<path d="M32.1196 35.0045C31.5223 35.0045 30.925 34.7759 30.47 34.3209L26.3867 30.2372C25.9479 29.801 25.7031 29.2084 25.7031 28.5876V22.1711C25.7031 20.8803 26.7482 19.8374 28.0364 19.8374C29.3245 19.8374 30.3696 20.8803 30.3696 22.1711V27.6216L33.7693 31.0212C34.6819 31.9338 34.6819 33.4083 33.7693 34.3209C33.3147 34.7759 32.7169 35.0045 32.1196 35.0045Z" fill="#F7F7F7"/>
</g>
<defs>
<clipPath id="clip0_225_2184">
<rect width="56" height="56" fill="white" transform="translate(0 0.588379)"/>
</clipPath>
</defs>
</svg>
