<svg width="24" height="24" viewBox="0 0 24 24" fill="none" xmlns="http://www.w3.org/2000/svg">
<g clip-path="url(#clip0_130_513)">
<path d="M18.0677 17.7956L17.0885 15.8372L16.1094 17.7956H18.0677Z" fill="#F7F7F7"/>
<path d="M21.8904 10.175H20.8942V8.06732C20.8942 7.86848 20.81 7.67896 20.6625 7.54565C20.515 7.41234 20.3178 7.34779 20.1201 7.36781C20.0082 7.37915 17.5004 7.66274 16.2519 10.175H15.2302V11.7166C15.2302 13.6547 13.6535 15.2314 11.7155 15.2314H10.1738V21.8915C10.1738 23.0542 11.1197 24 12.2823 24H21.8904C23.053 24 23.9989 23.0542 23.9989 21.8916V12.2835C23.9989 11.1209 23.053 10.175 21.8904 10.175ZM13.6349 19.5955L16.4574 13.9506C16.5765 13.7124 16.82 13.5619 17.0863 13.5619C17.3526 13.5619 17.5961 13.7124 17.7152 13.9506L20.5377 19.5955C20.7114 19.9429 20.5706 20.3652 20.2233 20.5389C19.876 20.7126 19.4536 20.5718 19.2799 20.2244L18.7686 19.2019H15.404L14.8928 20.2244C14.7696 20.4708 14.5213 20.6133 14.2633 20.6133C14.1577 20.6133 14.0504 20.5894 13.9495 20.5389C13.6021 20.3652 13.4613 19.9429 13.6349 19.5955Z" fill="#F7F7F7"/>
<path d="M7.57861 5.92221H6.24609C6.33309 6.61882 6.55608 7.20452 6.91238 7.67646C7.26863 7.20452 7.49161 6.61882 7.57861 5.92221Z" fill="#F7F7F7"/>
<path d="M11.7166 13.8251C12.8792 13.8251 13.8251 12.8792 13.8251 11.7166V2.10853C13.8251 0.94589 12.8792 0 11.7166 0H2.10853C0.945891 0 0 0.94589 0 2.10853V11.7166C0 12.8792 0.945891 13.8251 2.10848 13.8251H3.10467V15.9327C3.10467 16.1316 3.18886 16.3211 3.33638 16.4544C3.46622 16.5717 3.63441 16.6358 3.80775 16.6358C3.83133 16.6358 3.85509 16.6347 3.87877 16.6322C3.9907 16.6209 6.49842 16.3373 7.74694 13.8251H11.7166ZM7.28728 9.79092C7.16428 9.7253 7.03866 9.65119 6.91256 9.56873C6.78642 9.65119 6.66084 9.72534 6.53784 9.79092C5.33813 10.4308 4.14052 10.4381 4.09013 10.4381C3.70181 10.4381 3.387 10.1233 3.387 9.735C3.387 9.34669 3.70181 9.03187 4.09013 9.03187C4.09631 9.03183 4.96383 9.01922 5.82703 8.57569C5.33316 7.94325 4.94391 7.08511 4.83145 5.92219H4.09008C3.70177 5.92219 3.38695 5.60737 3.38695 5.21906C3.38695 4.83075 3.70177 4.51594 4.09008 4.51594H6.20944V4.09008C6.20944 3.70177 6.52425 3.38695 6.91256 3.38695C7.30088 3.38695 7.61569 3.70177 7.61569 4.09008V4.51594H9.735C10.1233 4.51594 10.4381 4.83075 10.4381 5.21906C10.4381 5.60737 10.1233 5.92219 9.735 5.92219H8.99372C8.88122 7.08511 8.49202 7.94325 7.99814 8.57569C8.8613 9.01922 9.72895 9.03178 9.73791 9.03187C10.1262 9.03187 10.4396 9.34669 10.4396 9.735C10.4396 10.1233 10.1233 10.4381 9.735 10.4381C9.68461 10.4381 8.487 10.4308 7.28728 9.79092Z" fill="#F7F7F7"/>
<path d="M17.1406 4.02277C17.2779 4.16007 17.4579 4.22874 17.6378 4.22874C17.8177 4.22874 17.9977 4.16012 18.1349 4.02277C18.4095 3.74818 18.4095 3.30301 18.1349 3.02841L17.9331 2.82657C20.521 2.9799 22.5796 5.13352 22.5796 7.75927C22.5796 8.14758 22.8944 8.4624 23.2827 8.4624C23.671 8.4624 23.9858 8.14758 23.9858 7.75927C23.9858 4.35273 21.2885 1.56469 17.9175 1.41774L18.1349 1.20029C18.4095 0.925693 18.4095 0.480521 18.1349 0.205928C17.8604 -0.0686191 17.4151 -0.068666 17.1406 0.205928L15.7294 1.61719C15.4548 1.89179 15.4548 2.33696 15.7294 2.61155L17.1406 4.02277Z" fill="#F7F7F7"/>
<path d="M6.84525 19.9632C6.5707 19.6886 6.12548 19.6886 5.85089 19.9632C5.5763 20.2378 5.5763 20.6829 5.85089 20.9575L6.05273 21.1594C3.46481 21.0061 1.40625 18.8524 1.40625 16.2267C1.40625 15.8384 1.09144 15.5236 0.703125 15.5236C0.314813 15.5236 0 15.8384 0 16.2267C0 19.6332 2.69733 22.4213 6.06834 22.5682L5.85089 22.7857C5.5763 23.0603 5.5763 23.5054 5.85089 23.78C5.98819 23.9173 6.16814 23.986 6.34805 23.986C6.52795 23.986 6.70795 23.9173 6.8452 23.78L8.25642 22.3688C8.53102 22.0942 8.53102 21.649 8.25642 21.3744L6.84525 19.9632Z" fill="#F7F7F7"/>
</g>
<defs>
<clipPath id="clip0_130_513">
<rect width="24" height="24" fill="white"/>
</clipPath>
</defs>
</svg>
