<svg width="64" height="65" viewBox="0 0 64 65" fill="none" xmlns="http://www.w3.org/2000/svg">
<path d="M22.7601 36.8682H22.5101V34.6382C22.5055 34.3425 22.4146 34.0546 22.2487 33.8099C22.0827 33.5652 21.8488 33.3743 21.5759 33.2606C21.3029 33.147 21.0026 33.1155 20.712 33.1702C20.4214 33.2248 20.1531 33.3632 19.9401 33.5682L16.6401 36.8682H7.90008C7.01993 36.8694 6.17618 37.2196 5.55382 37.8419C4.93147 38.4643 4.58129 39.308 4.58008 40.1882V51.3782C4.58129 52.2583 4.93147 53.1021 5.55382 53.7244C6.17618 54.3468 7.01993 54.697 7.90008 54.6982H22.7601C23.6402 54.697 24.484 54.3468 25.1063 53.7244C25.7287 53.1021 26.0789 52.2583 26.0801 51.3782V40.1882C26.0789 39.308 25.7287 38.4643 25.1063 37.8419C24.484 37.2196 23.6402 36.8694 22.7601 36.8682ZM19.9701 49.5182H10.6901C10.4273 49.5145 10.1766 49.4075 9.99206 49.2203C9.80756 49.0332 9.70412 48.781 9.70412 48.5182C9.70412 48.2554 9.80756 48.0032 9.99206 47.816C10.1766 47.6289 10.4273 47.5219 10.6901 47.5182H19.9701C20.2327 47.5221 20.4833 47.6291 20.6677 47.8163C20.852 48.0034 20.9554 48.2555 20.9554 48.5182C20.9554 48.7809 20.852 49.033 20.6677 49.2201C20.4833 49.4072 20.2327 49.5143 19.9701 49.5182ZM19.9701 44.5582H10.6901C10.4274 44.5543 10.1769 44.4472 9.9925 44.2601C9.80814 44.073 9.7048 43.8209 9.7048 43.5582C9.7048 43.2955 9.80814 43.0434 9.9925 42.8563C10.1769 42.6691 10.4274 42.5621 10.6901 42.5582H19.9701C20.2327 42.5621 20.4833 42.6691 20.6677 42.8563C20.852 43.0434 20.9554 43.2955 20.9554 43.5582C20.9554 43.8209 20.852 44.073 20.6677 44.2601C20.4833 44.4472 20.2327 44.5543 19.9701 44.5582Z" fill="#F7F7F7"/>
<path d="M55.4991 38.6484H44.3791L40.1591 34.4284C39.9274 34.2032 39.6348 34.0507 39.3174 33.9897C39 33.9287 38.6717 33.962 38.373 34.0853C38.0743 34.2086 37.8182 34.4167 37.6362 34.6838C37.4543 34.9509 37.3545 35.2654 37.3491 35.5885V38.6485H36.7891C36.2744 38.6484 35.7646 38.7498 35.289 38.9468C34.8134 39.1438 34.3813 39.4326 34.0173 39.7966C33.6533 40.1606 33.3645 40.5927 33.1675 41.0683C32.9705 41.5439 32.8691 42.0537 32.8691 42.5685V56.6684C32.8691 57.7081 33.2822 58.7052 34.0173 59.4403C34.7524 60.1754 35.7495 60.5884 36.7891 60.5884H55.4991C56.5383 60.5867 57.5344 60.1732 58.2691 59.4384C59.0039 58.7036 59.4175 57.7076 59.4191 56.6684V42.5684C59.4175 41.5293 59.0039 40.5332 58.2691 39.7984C57.5344 39.0636 56.5383 38.6501 55.4991 38.6484ZM52.3091 52.7284L47.1191 56.5784C46.8367 56.7846 46.497 56.8973 46.1473 56.9009C45.7977 56.9045 45.4557 56.7987 45.1691 56.5984L39.9691 52.7484C34.3355 48.4883 39.9831 38.5225 46.1293 43.4784C52.2708 38.4863 57.9585 48.445 52.3091 52.7284Z" fill="#F7F7F7"/>
<path d="M50.8397 44.5286C50.4974 44.3417 50.1214 44.2245 49.7335 44.1837C49.3456 44.1429 48.9534 44.1793 48.5797 44.2909C48.2059 44.4025 47.858 44.5869 47.5559 44.8337C47.2538 45.0805 47.0036 45.3846 46.8197 45.7286C46.7126 45.8238 46.5866 45.8953 46.45 45.9387C46.3134 45.982 46.1692 45.9961 46.0268 45.98C45.8844 45.964 45.747 45.9182 45.6235 45.8456C45.4999 45.7729 45.393 45.6751 45.3097 45.5585C44.9253 44.9198 44.3064 44.4567 43.5853 44.268C42.8641 44.0793 42.0977 44.18 41.4497 44.5485C39.2246 45.7364 39.0632 49.7165 41.1598 51.1385L46.1197 54.8286L51.1197 51.1186C53.2187 49.7026 53.0561 45.7165 50.8397 44.5286Z" fill="#F7F7F7"/>
<path d="M42.3401 4.58838H18.9701C17.7382 4.58981 16.5573 5.0805 15.6872 5.95252C14.817 6.82454 14.3289 8.00648 14.3301 9.23838V26.8384C14.3306 28.0698 14.8192 29.2507 15.689 30.1224C16.5588 30.994 17.7387 31.4853 18.9701 31.4884H42.3401C43.5725 31.4856 44.7536 30.9948 45.6251 30.1234C46.4966 29.2519 46.9873 28.0708 46.9901 26.8384V9.23838C46.989 8.00544 46.4988 6.8233 45.627 5.95148C44.7552 5.07967 43.573 4.58942 42.3401 4.58838ZM35.4601 20.0384L28.1001 24.2884C27.7493 24.4915 27.3512 24.5985 26.9459 24.5986C26.5406 24.5988 26.1424 24.4921 25.7915 24.2892C25.4407 24.0864 25.1494 23.7946 24.9473 23.4433C24.7451 23.0921 24.6392 22.6937 24.6401 22.2884V13.7884C24.6434 13.3847 24.752 12.9889 24.9551 12.6401C25.1583 12.2913 25.449 12.0016 25.7985 11.7995C26.148 11.5975 26.5442 11.4903 26.9478 11.4883C27.3515 11.4864 27.7487 11.5898 28.1001 11.7884L35.4601 16.0384C35.8087 16.2431 36.0977 16.5353 36.2985 16.8861C36.4993 17.2369 36.605 17.6341 36.605 18.0384C36.605 18.4426 36.4993 18.8398 36.2985 19.1906C36.0977 19.5415 35.8087 19.8337 35.4601 20.0384Z" fill="#F7F7F7"/>
<path d="M26.7906 22.5585C26.8375 22.5865 26.8911 22.6013 26.9456 22.6013C27.0002 22.6013 27.0538 22.5865 27.1006 22.5585L34.4606 18.3085C34.5108 18.2835 34.553 18.2449 34.5825 18.1972C34.612 18.1495 34.6276 18.0946 34.6276 18.0385C34.6276 17.9824 34.612 17.9275 34.5825 17.8798C34.553 17.8321 34.5108 17.7936 34.4606 17.7685L27.1006 13.5185C27.0545 13.4936 27.0031 13.4799 26.9506 13.4785C26.7617 13.4959 26.6668 13.5571 26.6406 13.7885V22.2885C26.6402 22.3426 26.6538 22.396 26.68 22.4433C26.7063 22.4906 26.7444 22.5303 26.7906 22.5585Z" fill="#F7F7F7"/>
</svg>
