<svg width="48" height="48" viewBox="0 0 48 48" fill="none" xmlns="http://www.w3.org/2000/svg">
<path fill-rule="evenodd" clip-rule="evenodd" d="M48 24C48 37.2548 37.2548 48 24 48C10.7452 48 0 37.2548 0 24C0 10.7452 10.7452 0 24 0C37.2548 0 48 10.7452 48 24ZM14.3172 15.3356C14.8971 15.0953 15.5186 14.9716 16.1463 14.9716H31.8537C32.4814 14.9716 33.1029 15.0953 33.6828 15.3356C34.2627 15.5759 34.7896 15.9281 35.2333 16.3721C35.677 16.8161 36.0289 17.3432 36.2688 17.9232C36.5087 18.5033 36.632 19.1249 36.6316 19.7526V28.2474C36.632 28.8751 36.5087 29.4967 36.2688 30.0768C36.0289 30.6568 35.677 31.1839 35.2333 31.6279C34.7896 32.0719 34.2627 32.4241 33.6828 32.6644C33.1029 32.9047 32.4814 33.0284 31.8537 33.0284H16.1463C15.5186 33.0284 14.8971 32.9047 14.3172 32.6644C13.7373 32.4241 13.2104 32.0719 12.7667 31.6279C12.323 31.1839 11.9711 30.6568 11.7312 30.0768C11.4913 29.4967 11.368 28.8751 11.3684 28.2474V19.7526C11.368 19.1249 11.4913 18.5033 11.7312 17.9232C11.9711 17.3432 12.323 16.8161 12.7667 16.3721C13.2104 15.9281 13.7373 15.5759 14.3172 15.3356ZM27.3284 24L20.6716 20.1284V27.8716L27.3284 24Z" fill="#F7F7F7"/>
</svg>
